<svg xmlns="http://www.w3.org/2000/svg" viewBox="0 0 512 512" width="512" height="512">
  <defs>
    <linearGradient id="bg" x1="0" y1="0" x2="1" y2="1">
      <stop offset="0" stop-color="#153f74"/>
      <stop offset="1" stop-color="#0a1830"/>
    </linearGradient>
    <linearGradient id="ray" x1="0" y1="0" x2="1" y2="1">
      <stop offset="0" stop-color="#7fd7ff"/>
      <stop offset="0.5" stop-color="#2a7fd4"/>
      <stop offset="1" stop-color="#0b2f5e"/>
    </linearGradient>
  </defs>
  <rect width="512" height="512" rx="112" fill="url(#bg)"/>
  <g transform="translate(256 262) scale(1.5) translate(-100 -70)">
    <path d="M100 12 C128 12 150 24 176 52 C190 67 198 78 198 86 C198 92 190 92 182 88 C168 81 150 74 138 74 C142 92 140 112 128 128 C122 136 116 132 114 122 C111 108 106 96 100 90 C94 96 89 108 86 122 C84 132 78 136 72 128 C60 112 58 92 62 74 C50 74 32 81 18 88 C10 92 2 92 2 86 C2 78 10 67 24 52 C50 24 72 12 100 12 Z" fill="url(#ray)"/>
    <circle cx="86" cy="46" r="6" fill="#eaf7ff"/>
    <circle cx="114" cy="46" r="6" fill="#eaf7ff"/>
  </g>
</svg>
